<svg width="20" height="20" viewBox="0 0 20 20" fill="none" xmlns="http://www.w3.org/2000/svg">
<path d="M18.5714 0H10C9.62124 0.000378198 9.25809 0.151009 8.99027 0.418837C8.72244 0.686664 8.57181 1.04981 8.57143 1.42857V8.57143H1.42857C1.04981 8.57181 0.686664 8.72244 0.418837 8.99027C0.151009 9.25809 0.000378198 9.62124 0 10V20H20V1.42857C19.9996 1.04981 19.849 0.686664 19.5812 0.418837C19.3133 0.151009 18.9502 0.000378198 18.5714 0ZM5 18.5714V13.5714H7.85714V18.5714H5ZM18.5714 18.5714H9.28571V12.8571C9.28571 12.6677 9.21046 12.486 9.0765 12.3521C8.94255 12.2181 8.76087 12.1429 8.57143 12.1429H4.28571C4.09627 12.1429 3.91459 12.2181 3.78064 12.3521C3.64668 12.486 3.57143 12.6677 3.57143 12.8571V18.5714H1.42857V10H10V1.42857H18.5714V18.5714Z" fill="white"/>
</svg>
