<svg width="18" height="21" viewBox="0 0 18 21" fill="none" xmlns="http://www.w3.org/2000/svg">
<path d="M10.0305 1.15718C9.752 0.893871 9.38327 0.747162 9 0.747162C8.61673 0.747162 8.248 0.893871 7.9695 1.15718L0.703501 8.02417C0.481023 8.2347 0.303873 8.48844 0.182905 8.76984C0.0619366 9.05124 -0.000302358 9.35438 1.10438e-06 9.66068V18.0157C0.000398756 18.6122 0.237627 19.1841 0.659541 19.6057C1.08145 20.0273 1.65352 20.2642 2.25 20.2642H4.5C5.09674 20.2642 5.66903 20.0271 6.09099 19.6052C6.51295 19.1832 6.75 18.6109 6.75 18.0142V14.2642C6.75 14.0653 6.82902 13.8745 6.96967 13.7338C7.11032 13.5932 7.30109 13.5142 7.5 13.5142H10.5C10.6989 13.5142 10.8897 13.5932 11.0303 13.7338C11.171 13.8745 11.25 14.0653 11.25 14.2642V18.0142C11.25 18.6109 11.4871 19.1832 11.909 19.6052C12.331 20.0271 12.9033 20.2642 13.5 20.2642H15.75C16.3467 20.2642 16.919 20.0271 17.341 19.6052C17.7629 19.1832 18 18.6109 18 18.0142V9.65917C17.9999 9.35302 17.9373 9.0501 17.8161 8.76897C17.6949 8.48784 17.5176 8.2344 17.295 8.02417L10.0305 1.15418V1.15718Z" fill="white"/>
</svg>
