<svg width="20" height="15" viewBox="0 0 20 15" fill="none" xmlns="http://www.w3.org/2000/svg">
<path d="M19.2857 5.71429C19.4752 5.71429 19.6568 5.63903 19.7908 5.50508C19.9247 5.37112 20 5.18944 20 5V1.42857C20 1.04969 19.8495 0.686328 19.5816 0.418419C19.3137 0.15051 18.9503 0 18.5714 0H1.42857C1.04969 0 0.686328 0.15051 0.418419 0.418419C0.15051 0.686328 0 1.04969 0 1.42857V5C0 5.18944 0.0752549 5.37112 0.209209 5.50508C0.343164 5.63903 0.524845 5.71429 0.714286 5.71429C1.09317 5.71429 1.45653 5.8648 1.72444 6.13271C1.99235 6.40061 2.14286 6.76398 2.14286 7.14286C2.14286 7.52174 1.99235 7.8851 1.72444 8.15301C1.45653 8.42092 1.09317 8.57143 0.714286 8.57143C0.524845 8.57143 0.343164 8.64668 0.209209 8.78064C0.0752549 8.91459 0 9.09627 0 9.28571V12.8571C0 13.236 0.15051 13.5994 0.418419 13.8673C0.686328 14.1352 1.04969 14.2857 1.42857 14.2857H18.5714C18.9503 14.2857 19.3137 14.1352 19.5816 13.8673C19.8495 13.5994 20 13.236 20 12.8571V9.28571C20 9.09627 19.9247 8.91459 19.7908 8.78064C19.6568 8.64668 19.4752 8.57143 19.2857 8.57143C18.9068 8.57143 18.5435 8.42092 18.2756 8.15301C18.0077 7.8851 17.8571 7.52174 17.8571 7.14286C17.8571 6.76398 18.0077 6.40061 18.2756 6.13271C18.5435 5.8648 18.9068 5.71429 19.2857 5.71429ZM18.5714 9.90714V12.8571H13.5714V10.7143H12.1429V12.8571H1.42857V9.90714C2.04 9.74734 2.58119 9.38933 2.96745 8.88914C3.3537 8.38896 3.56323 7.77482 3.56323 7.14286C3.56323 6.51089 3.3537 5.89676 2.96745 5.39657C2.58119 4.89639 2.04 4.53838 1.42857 4.37857V1.42857H12.1429V3.57143H13.5714V1.42857H18.5714V4.37857C17.96 4.53838 17.4188 4.89639 17.0326 5.39657C16.6463 5.89676 16.4368 6.51089 16.4368 7.14286C16.4368 7.77482 16.6463 8.38896 17.0326 8.88914C17.4188 9.38933 17.96 9.74734 18.5714 9.90714Z" fill="white"/>
<path d="M12.1429 5H13.5714V9.28571H12.1429V5Z" fill="white"/>
</svg>
